<?xml version="1.0" encoding="utf-8"?>
<!-- Generator: Adobe Illustrator 18.1.1, SVG Export Plug-In . SVG Version: 6.00 Build 0)  -->
<!DOCTYPE svg PUBLIC "-//W3C//DTD SVG 1.1//EN" "http://www.w3.org/Graphics/SVG/1.1/DTD/svg11.dtd">
<svg version="1.1" id="Layer_1" xmlns="http://www.w3.org/2000/svg" xmlns:xlink="http://www.w3.org/1999/xlink" x="0px" y="0px"
	 width="256px" height="256px" viewBox="0 0 256 256" style="enable-background:new 0 0 256 256;" xml:space="preserve">
<style type="text/css">
	.st0{fill:#512200;stroke:#512200;stroke-width:7.1224;stroke-miterlimit:10;}
</style>
<g>
	<g>
		<path class="st0" d="M195.5,109.4c2.3,9.1,3.6,18.8,3.6,28.9c0,1.2,0,2.3-0.1,3.5l11.5,4.6l9.5-8.1l7.3,8.9L213,159.4l-14.9-6.2
			c-1.7,13.6-5.7,26.1-11.4,37.1l2-2.9l11.2,6.6l10.6-6.6l5.9,9.9l-15.9,9.9l-17.5-10.5c-13.7,21.9-34.9,36-58.7,36
			c-23.7,0-44.9-14-58.5-35.8l-17.2,10.4l-15.9-9.9l5.9-9.9l10.6,6.6l11.2-6.6l0.8,1.1c-5.2-10.5-8.9-22.4-10.5-35.2l-14.4,6
			l-14.3-12.2l7.3-8.9l9.5,8.1l11-4.4c0-1.2-0.1-2.5-0.1-3.7c0-10.1,1.3-19.8,3.6-29l-18.6-0.7l-8.1-17.1l10.2-5L42.3,98l12.9,0.6
			l0.2,3.8C63.1,78.8,78.2,60,97,50.6c0.4-7.2,6.2-13,13.4-13h31.2c7.4,0,13.4,6.1,13.4,13.7c0,0.3-0.1,0.6-0.1,1
			c17.7,10,31.8,28.5,38.9,51.4l0.3-5.2L207,98l5.4-11.4l10.2,5l-8.1,17.1L195.5,109.4z"/>
		<polygon class="st0" points="162.2,25.5 160.7,29.6 158.5,30.6 153.7,32 149.7,34.4 144.1,37.6 144.1,34.4 150.4,29.8 155,28.4 
			159.1,25.5 161.4,20.7 165.9,19.1 164.7,23.6 		"/>
		<polygon class="st0" points="98.3,32 93.5,30.6 91.3,29.6 89.8,25.5 87.3,23.6 86,19.1 90.6,20.7 92.9,25.5 96.9,28.4 101.6,29.8 
			107.9,34.4 107.9,37.6 102.3,34.4 		"/>
	</g>
</g>
<g>
</g>
<g>
</g>
<g>
</g>
<g>
</g>
<g>
</g>
<g>
</g>
<g>
</g>
<g>
</g>
<g>
</g>
<g>
</g>
<g>
</g>
<g>
</g>
<g>
</g>
<g>
</g>
<g>
</g>
</svg>
