<svg xmlns="http://www.w3.org/2000/svg" width="256" height="256" viewBox="0 0 256 256"><style type="text/css">.st0{fill:#512200;stroke:#512200;stroke-width:7.1224;stroke-miterlimit:10;}</style><path class="st0" d="M195.5 109.4c2.3 9.1 3.6 18.8 3.6 28.9 0 1.2 0 2.3-.1 3.5l11.5 4.6 9.5-8.1 7.3 8.9-14.3 12.2-14.9-6.2c-1.7 13.6-5.7 26.1-11.4 37.1l2-2.9 11.2 6.6 10.6-6.6 5.9 9.9-15.9 9.9-17.5-10.5c-13.7 21.9-34.9 36-58.7 36-23.7 0-44.9-14-58.5-35.8l-17.2 10.4-15.9-9.9 5.9-9.9 10.6 6.6 11.2-6.6.8 1.1c-5.2-10.5-8.9-22.4-10.5-35.2l-14.4 6-14.3-12.2 7.3-8.9 9.5 8.1 11-4.4-.1-3.7c0-10.1 1.3-19.8 3.6-29l-18.6-.7-8.1-17.1 10.2-5 5.5 11.5 12.9.6.2 3.8c7.7-23.6 22.8-42.4 41.6-51.8.4-7.2 6.2-13 13.4-13h31.2c7.4 0 13.4 6.1 13.4 13.7 0 .3-.1.6-.1 1 17.7 10 31.8 28.5 38.9 51.4l.3-5.2 12.9-.5 5.4-11.4 10.2 5-8.1 17.1-19 .7zM162.2 25.5l-1.5 4.1-2.2 1-4.8 1.4-4 2.4-5.6 3.2v-3.2l6.3-4.6 4.6-1.4 4.1-2.9 2.3-4.8 4.5-1.6-1.2 4.5zM98.3 32l-4.8-1.4-2.2-1-1.5-4.1-2.5-1.9-1.3-4.5 4.6 1.6 2.3 4.8 4 2.9 4.7 1.4 6.3 4.6v3.2l-5.6-3.2z"/></svg>